<svg xmlns="http://www.w3.org/2000/svg" xmlns:xlink="http://www.w3.org/1999/xlink" width="50" height="50">
<symbol id="moon-first-quarter" viewBox="100 100 320 320"><g fill="none" stroke-linecap="round" stroke-linejoin="round"><path stroke-dasharray="0 0 16.9 56.2" stroke-width="12" d="M384 256a128 128 0 00-128-128c-169.8 6.7-169.7 249.3 0 256a128 128 0 00128-128h0Z"/><path stroke-width="13.7" d="M306.4 138a127.6 127.6 0 00-51.6-11.5 127 127 0 0123.6 138A127.1 127.1 0 01160 339.3c12.7 15.7 23.3 22 43 30.8 65.5 29 141.6.7 170.2-63.4A128.4 128.4 0 00306.4 138Z"/></g></symbol>
<symbol id="moon-full" viewBox="100 100 320 320"><g><circle cx="256" cy="256" r="140" fill="none" stroke-linecap="round" stroke-linejoin="round" stroke-width="13.7"/></g></symbol>
<symbol id="moon-last-quarter" viewBox="100 100 320 320"><g fill="none" stroke-linecap="round" stroke-linejoin="round"><path stroke-dasharray="0 0 16.9 56.2" stroke-width="12" d="M384 256a128 128 0 00-128-128c-169.8 6.7-169.7 249.3 0 256a128 128 0 00128-128h0Z"/><path stroke-width="13.7" d="M204.8 137.3c20-8.8 37-11.2 52-11.5a127.7 127.7 0 00-23.9 138.8A127.8 127.8 0 00352 339.8c-12.8 15.7-23.4 22-43.3 30.9a129 129 0 01-171-63.7 129 129 0 0167.1-169.7Z"/></g></symbol>
<symbol id="moon-new" viewBox="100 100 320 320"><g><path fill="none" stroke-dasharray="0 0 16.9 56.2" stroke-linecap="round" stroke-linejoin="round" stroke-width="12" d="M384 256a128 128 0 00-128-128c-169.8 6.7-169.7 249.3 0 256a128 128 0 00128-128h0Z"/></g></symbol>
<symbol id="moon-waning-crescent" viewBox="100 100 320 320"><g fill="none" stroke-linecap="round" stroke-linejoin="round"><path stroke-dasharray="0 0 16.9 56.2" stroke-width="12" d="M384 256a128 128 0 00-128-128c-169.8 6.7-169.7 249.3 0 256a128 128 0 00128-128h0Z"/><path stroke-width="13.7" d="M201.3 139.4a128 128 0 0117.3-6.2l-.6.4h0c-83.8 87.9-19.1 233.2 102.2 229.7l.8-.2a127.2 127.2 0 11-119.7-223.7Z"/></g></symbol>
<symbol id="moon-waning-gibbous" viewBox="100 100 320 320"><g fill="none" stroke-linecap="round" stroke-linejoin="round"><path stroke-dasharray="0 0 16.9 56.2" stroke-width="12" d="M384 256a128 128 0 00-128-128c-169.8 6.7-169.7 249.3 0 256a128 128 0 00128-128h0Z"/><path stroke-width="13.7" d="M130.9 218c17.8-63 80.2-100 143.4-87.7a120 120 0 00-12.7 29.5 131.5 131.5 0 00101.6 163.5 124 124 0 01-144.4 55c-67.6-21-107-92.7-88-160.3Z"/></g></symbol>
<symbol id="moon-waxing-crescent" viewBox="100 100 320 320"><g fill="none" stroke-linecap="round" stroke-linejoin="round"><path stroke-dasharray="0 0 16.9 56.2" stroke-width="12" d="M384 256a128 128 0 00-128-128c-169.8 6.7-169.7 249.3 0 256a128 128 0 00128-128h0Z"/><path stroke-width="13.7" d="M308.2 139c-5.7-2.6-11.5-4.7-17.4-6.4l.7.5h0c84.1 88.2 19.1 234.1-102.8 230.7l-.7-.2a127.7 127.7 0 10120.2-224.7Z"/></g></symbol>
<symbol id="moon-waxing-gibbous" viewBox="100 100 320 320"><g fill="none" stroke-linecap="round" stroke-linejoin="round"><path stroke-dasharray="0 0 16.9 56.2" stroke-width="12" d="M384 256a128 128 0 00-128-128c-169.8 6.7-169.7 249.3 0 256a128 128 0 00128-128h0Z"/><path stroke-width="13.7" d="M381.8 218c-17.8-63-80.2-100-143.4-87.7a124 124 0 0112.7 29.5 131.5 131.5 0 01-101.7 163.5 124 124 0 00144.4 55c67.7-21 107-92.7 88-160.3Z"/></g></symbol>

<symbol id="curved-arrow" viewBox="0 0 400 400">
<path d="M35 262C160.529 140.938 328.006 207.285 361 215.518" stroke-opacity="0.9" stroke-width="16" stroke-linecap="round" stroke-linejoin="round"/>
<path d="M343.69 143C355.23 190.289 361 214.681 361 216.177C361 218.421 327.488 234.13 312 258" stroke-opacity="0.9" stroke-width="16" stroke-linecap="round" stroke-linejoin="round"/>
</symbol>

</svg>