<!-- Generated by IcoMoon.io -->
<svg version="1.1" xmlns="http://www.w3.org/2000/svg" width="32" height="32" viewBox="0 0 32 32">
<path fill="#000" stroke="#e5e7eb" stroke-linejoin="miter" stroke-linecap="butt" stroke-miterlimit="10" stroke-width="0.75" d="M25 16c0 4.971-4.029 9-9 9s-9-4.029-9-9c0-4.971 4.029-9 9-9s9 4.029 9 9z"></path>
<path fill="none" stroke="#9ca3af" stroke-linejoin="round" stroke-linecap="round" stroke-miterlimit="4" stroke-width="0.375" d="M16 12.5v-3M22.75 16h-3M12.5 16h-3M20.75 11.75l-1.5 1.5M12.75 13.25l-1.5-1.5M19.25 18.75l1.5 1.5M11.25 20.25l1.5-1.5"></path>
<path fill="#ef4444" d="M17.5 16c0 0.828-0.672 1.5-1.5 1.5s-1.5-0.672-1.5-1.5c0-0.828 0.672-1.5 1.5-1.5s1.5 0.672 1.5 1.5z"></path>
<path fill="none" stroke="#ef4444" stroke-linejoin="miter" stroke-linecap="round" stroke-miterlimit="10" stroke-width="0.75" d="M16 17.75v-7.5"></path>
</svg>
