<!-- Generated by IcoMoon.io -->
<svg version="1.1" xmlns="http://www.w3.org/2000/svg" width="32" height="32" viewBox="0 0 32 32">
<path fill="#000" d="M15.994 8.538c-3.044 4.5-5 7.313-5 10.044s2.237 4.956 5 4.956 5-2.219 5-4.956-1.956-5.55-5-10.044z"></path>
<path fill="#fff" d="M13.675 15.656q0.3-0.281 0.856-0.281t0.85 0.281q0.3 0.275 0.3 0.775v0.5q0 0.488-0.3 0.762t-0.85 0.275q-0.563 0-0.856-0.275t-0.3-0.762v-0.5q0-0.5 0.3-0.775zM18.125 15.556c0.004 0.014 0.006 0.030 0.006 0.047 0 0.044-0.017 0.085-0.044 0.116l0-0-3.313 4.581c-0.046 0.071-0.104 0.129-0.173 0.174l-0.002 0.001c-0.072 0.025-0.155 0.039-0.241 0.039-0.016 0-0.032-0-0.048-0.002l0.002 0h-0.275c-0.081 0-0.131-0.025-0.156-0.069-0.005-0.015-0.008-0.033-0.008-0.051 0-0.048 0.020-0.092 0.051-0.124v0l3.313-4.581c0.039-0.071 0.094-0.128 0.16-0.168l0.002-0.001c0.068-0.021 0.145-0.033 0.226-0.033 0.017 0 0.035 0.001 0.052 0.002l-0.002-0h0.306c0.075 0 0.125 0.025 0.144 0.069zM14.531 16.031q-0.481 0-0.481 0.438v0.419q0 0.438 0.481 0.438t0.481-0.438v-0.425q0-0.431-0.481-0.431zM16.619 18.306q0.294-0.281 0.856-0.281t0.85 0.281q0.3 0.281 0.3 0.775v0.5q0 0.488-0.3 0.762t-0.856 0.281q-0.556 0-0.85-0.275t-0.3-0.769v-0.5q0-0.5 0.3-0.775zM17.469 18.688q-0.475 0-0.475 0.438v0.413q0 0.438 0.475 0.438t0.481-0.438v-0.419q0-0.431-0.481-0.431z"></path>
</svg>
