<!-- Generated by IcoMoon.io -->
<svg version="1.1" xmlns="http://www.w3.org/2000/svg" width="32" height="32" viewBox="0 0 32 32">
<path d="M21.25 18.25c0 2.899-2.351 5.25-5.25 5.25s-5.25-2.351-5.25-5.25c0-2.899 2.351-5.25 5.25-5.25s5.25 2.351 5.25 5.25z"></path>
<path d="M16 10.106v-3.106zM16 29.5v-3.106zM21.762 12.488l2.188-2.188zM8.050 26.2l2.194-2.194zM10.244 12.481l-2.188-2.188zM23.962 26.2l-2.194-2.194zM7.856 18.25h-3.106zM27.25 18.25h-3.106z"></path>
<path fill="none" stroke="#374151" stroke-linejoin="round" stroke-linecap="round" stroke-miterlimit="4" stroke-width="1.125" d="M8 20.75h5.5l2.5-2.25 2.5 2.25h5.5"></path>
</svg>
