<!-- Generated by IcoMoon.io -->
<svg version="1.1" xmlns="http://www.w3.org/2000/svg" width="32" height="32" viewBox="0 0 32 32">
<path fill="none" stroke="#000" stroke-linejoin="round" stroke-linecap="round" stroke-miterlimit="4" stroke-width="1.5" d="M9.25 23.5v-15"></path>
<path d="M11.963 8.563l1.8 0.269c0.192 0.031 0.337 0.195 0.338 0.394v4.606c-0.001 0.198-0.146 0.363-0.335 0.393l-0.002 0-1.8 0.262c-0.017 0.003-0.036 0.004-0.056 0.004-0.221 0-0.4-0.179-0.4-0.4 0-0.001 0-0.003 0-0.004v0-5.125c0.001-0.22 0.18-0.398 0.4-0.398 0.020 0 0.039 0.001 0.058 0.004l-0.002-0z"></path>
<path d="M16.288 9.131l1.8 0.262c0.192 0.031 0.337 0.195 0.337 0.394v3.475c-0.001 0.2-0.149 0.365-0.342 0.393l-0.002 0-1.794 0.262c-0.017 0.003-0.036 0.004-0.056 0.004-0.22 0-0.399-0.178-0.4-0.398v-4c0.001-0.22 0.18-0.398 0.4-0.398 0.020 0 0.039 0.001 0.058 0.004l-0.002-0z"></path>
<path d="M20.613 9.7l1.794 0.262c0.195 0.028 0.343 0.194 0.344 0.394v2.338c-0.001 0.2-0.149 0.365-0.342 0.393l-0.002 0-1.794 0.262c-0.017 0.003-0.036 0.004-0.056 0.004-0.22 0-0.399-0.178-0.4-0.398v-2.863c0.001-0.22 0.18-0.398 0.4-0.398 0.020 0 0.039 0.001 0.058 0.004l-0.002-0z"></path>
</svg>
