<svg xmlns="http://www.w3.org/2000/svg" xmlns:xlink="http://www.w3.org/1999/xlink" width="0" height="0">


<symbol id="barometer" viewBox="0 0 500 510">
<g id="SVGRepo_bgCarrier"></g><g id="SVGRepo_tracerCarrier" stroke-linecap="round" stroke-linejoin="round"></g><g id="SVGRepo_iconCarrier"> <g> <g> <path d="M256,0C114.51,0,0,114.497,0,256c0,141.491,114.497,256,256,256c141.49,0,256-114.497,256-256 C512,114.509,397.503,0,256,0z M256,478.609c-122.746,0-222.609-99.862-222.609-222.609S133.254,33.391,256,33.391 S478.609,133.254,478.609,256S378.746,478.609,256,478.609z"></path> </g> </g> <g> <g> <path d="M256,66.783C151.29,66.783,66.783,151.738,66.783,256c0,48.619,18.872,97.248,55.421,133.797 c6.52,6.52,17.091,6.52,23.611,0l23.611-23.611c6.52-6.519,6.52-17.09,0-23.611c-6.519-6.52-17.09-6.52-23.611,0l-11.177,11.177 c-19.241-23.851-30.408-52.1-33.501-81.056h15.734c9.22,0,16.696-7.475,16.696-16.696c0-9.22-7.475-16.696-16.696-16.696h-15.725 c3.094-28.955,14.261-57.198,33.5-81.05l11.17,11.169c6.52,6.52,17.091,6.52,23.611,0c6.519-6.519,6.519-17.091,0-23.611 l-11.175-11.175c23.276-18.804,51.227-30.356,81.054-33.5v15.732c0,9.22,7.475,16.696,16.696,16.696 c9.22,0,16.696-7.475,16.696-16.696v-15.731c29.827,3.144,57.777,14.698,81.054,33.5l-72.032,72.032 c-7.699-4.03-16.444-6.323-25.719-6.323c-30.687,0-55.652,24.966-55.652,55.652c0,30.687,24.966,55.652,55.652,55.652 c30.687,0,55.652-24.966,55.652-55.652c0-9.275-2.293-18.02-6.323-25.718l72.026-72.026c19.239,23.85,30.406,52.094,33.5,81.05 H395.13c-9.22,0-16.696,7.475-16.696,16.696c0,9.22,7.475,16.696,16.696,16.696h15.734c-3.093,28.956-14.26,57.206-33.501,81.056 l-11.177-11.177c-6.519-6.519-17.091-6.519-23.611,0c-6.52,6.52-6.52,17.091,0,23.611l23.611,23.611 c6.52,6.52,17.091,6.52,23.611,0c36.482-36.483,55.421-85.084,55.421-133.798C445.217,151.681,360.676,66.783,256,66.783z M256,278.261c-12.275,0-22.261-9.986-22.261-22.261c0-12.275,9.986-22.261,22.261-22.261c12.275,0,22.261,9.986,22.261,22.261 C278.261,268.275,268.275,278.261,256,278.261z"></path> </g> </g> <g> <g> <path d="M272.696,345.043h-33.391c-27.618,0-50.087,22.469-50.087,50.087s22.469,50.087,50.087,50.087h33.391 c27.618,0,50.087-22.469,50.087-50.087S300.314,345.043,272.696,345.043z M272.696,411.826h-33.391 c-9.206,0-16.696-7.49-16.696-16.696s7.49-16.696,16.696-16.696h33.391c9.206,0,16.696,7.49,16.696,16.696 S281.902,411.826,272.696,411.826z"></path> </g> </g> </g>
</symbol>

<symbol id="compass" viewBox="0 0 500 500">
<g id="fq"><circle cx="256" cy="256" r="144" fill="none" stroke="#ffff" stroke-miterlimit="10" stroke-width="12"/><path d="M259.2 152v-10.4h4.6v18h-4.7l-6.3-10.4v10.4h-4.6v-18h4.6l6.4 10.5Zm103.3 105.7v3.3h9.8v4h-14.5v-18H372v4h-9.5v2.9h8.3v3.8h-8.3Zm-106.4 116c-2.3 0-4-.5-5.4-1.6-1.3-1-2-2.5-2-4.4h4.4c0 1.6 1.1 2.4 3.1 2.4 1.8 0 2.6-.6 2.6-1.7 0-.4-.1-.8-.4-1-.4-.3-.9-.5-1.6-.7l-3.4-.8c-3-.7-4.4-2.3-4.4-4.9a5 5 0 011.7-3.8c1.2-1 2.9-1.5 5.1-1.5s3.8.5 5 1.4c1.3 1 2 2.3 2 4h-4.3c-.2-1.3-1.1-2-2.7-2-.7 0-1.3.2-1.7.4-.4.3-.6.7-.6 1.2 0 .7.5 1.2 1.6 1.4l3.5.8c3.2.8 4.8 2.5 4.8 5.2 0 1.7-.7 3.1-2 4-1.3 1-3 1.6-5.3 1.6ZM156.2 255l2-8h4.7l-5.2 18h-4.5l-2.4-11.5-2.3 11.5h-4.7l-5.2-18h4.8l2 8 .8 4.2.7-4.3 1.7-7.9h4.4l1.7 8 .7 4.1.8-4.2Z"/><g><path id="compass-dir" d="m256 172-24 84h48l-24-84zM232 256l24 84 24-84h-48z"/></g></g>
</symbol>

<symbol id="humidity" viewBox="0 0 65 65">
<path d="M49.7,35.9C47.3,21.2,29.5,4,28.7,3.3c-0.4-0.4-1-0.4-1.4,0C26.4,4.1,6,23.7,6,39c0,12.1,9.9,22,22,22    c3.4,0,6.7-0.8,9.7-2.3c2.1,1.4,4.6,2.3,7.3,2.3c7.2,0,13-5.8,13-13C58,42.5,54.6,37.8,49.7,35.9z M28,59C17,59,8,50,8,39    C8,26.1,24.4,9,28,5.4C31.3,8.7,45,23,47.6,35.3C46.7,35.1,45.9,35,45,35c-7.2,0-13,5.8-13,13c0,3.7,1.5,7,4,9.3    C33.5,58.4,30.8,59,28,59z M45,59c-6.1,0-11-4.9-11-11s4.9-11,11-11s11,4.9,11,11S51.1,59,45,59z"/>
<path d="M28,54c-8.3,0-15-6.7-15-15c0-0.6-0.4-1-1-1s-1,0.4-1,1c0,9.4,7.6,17,17,17c0.6,0,1-0.4,1-1S28.6,54,28,54z"/>
<path d="M48.4,40.1c-0.5-0.2-1.1,0-1.3,0.5l-6,14c-0.2,0.5,0,1.1,0.5,1.3C41.7,56,41.9,56,42,56c0.4,0,0.8-0.2,0.9-0.6l6-14    C49.1,40.9,48.9,40.3,48.4,40.1z"/>
<path d="M44,44c0-1.7-1.3-3-3-3s-3,1.3-3,3s1.3,3,3,3S44,45.7,44,44z M40,44c0-0.6,0.4-1,1-1s1,0.4,1,1s-0.4,1-1,1S40,44.6,40,44z    "/>
<path d="M49,49c-1.7,0-3,1.3-3,3s1.3,3,3,3s3-1.3,3-3S50.7,49,49,49z M49,53c-0.6,0-1-0.4-1-1s0.4-1,1-1s1,0.4,1,1S49.6,53,49,53z    "/>
</symbol>

<symbol id="raindrop-measure" viewBox="0 0 256.68 256.68">
<g>
	<g>
		<g>
			<path d="M99.369,91.118c-1.556-2.958-4.623-4.811-7.966-4.811s-6.41,1.853-7.966,4.811l-42.534,80.88
				c-9.362,17.803-8.898,38.848,1.24,56.294c9.933,17.092,27.559,27.69,47.146,28.352c0.702,0.024,1.406,0.036,2.113,0.036
				c0.708,0,1.412-0.012,2.109-0.036c19.591-0.662,37.217-11.261,47.15-28.353c10.139-17.446,10.603-38.491,1.24-56.293
				L99.369,91.118z M125.099,219.247c-6.901,11.876-18.636,18.949-32.198,19.407c-0.995,0.034-1.997,0.035-3,0
				c-13.559-0.458-25.293-7.531-32.195-19.407c-7.006-12.056-7.332-26.587-0.872-38.872l34.568-65.733l34.568,65.733
				C132.43,192.66,132.105,207.191,125.099,219.247z"/>
			<path d="M219.636,150.095l-22.432-51.498c-1.43-3.283-4.67-5.406-8.251-5.406s-6.821,2.123-8.251,5.406l-22.432,51.498
				c-4.494,10.317-3.627,22.205,2.317,31.801c5.87,9.475,15.55,15.229,26.563,15.788c0.597,0.03,1.198,0.045,1.802,0.045
				s1.206-0.016,1.807-0.046c11.009-0.558,20.689-6.313,26.559-15.787C223.264,172.3,224.13,160.412,219.636,150.095z
				 M202.018,172.416c-2.713,4.378-7.148,7.036-12.165,7.29c-0.596,0.03-1.208,0.03-1.795,0c-5.021-0.255-9.456-2.912-12.168-7.291
				c-2.834-4.574-3.251-10.231-1.117-15.132l14.181-32.555l14.181,32.555C205.269,162.185,204.852,167.841,202.018,172.416z"/>
			<path d="M137.794,104.491c0.6,0.031,1.204,0.046,1.812,0.046c0.607,0,1.211-0.015,1.807-0.046
				c11.008-0.558,20.688-6.312,26.559-15.786c5.945-9.596,6.812-21.484,2.317-31.801L147.857,5.406
				C146.427,2.123,143.187,0,139.606,0s-6.821,2.123-8.251,5.406l-22.432,51.498c-4.494,10.317-3.627,22.205,2.318,31.801
				C117.111,98.18,126.791,103.934,137.794,104.491z M125.425,64.093l14.181-32.556l14.18,32.555
				c2.135,4.901,1.718,10.558-1.116,15.133c-2.713,4.378-7.148,7.035-12.174,7.29c-0.589,0.03-1.185,0.03-1.786,0
				c-5.021-0.254-9.456-2.912-12.168-7.29C123.708,74.651,123.29,68.994,125.425,64.093z"/>
			<path d="M91.544,213.662c-5.06-0.171-9.444-2.82-12.029-7.269c-2.649-4.558-2.774-10.047-0.335-14.685
				c2.313-4.399,0.623-9.841-3.777-12.155c-4.398-2.312-9.841-0.623-12.155,3.777c-5.341,10.156-5.078,22.159,0.704,32.107
				c5.68,9.774,15.768,15.835,26.985,16.214c0.104,0.004,0.206,0.005,0.309,0.005c4.83,0,8.825-3.832,8.989-8.696
				C100.403,217.993,96.512,213.83,91.544,213.662z"/>
		</g>
	</g>
</g>
</symbol>

<symbol id="sunset" viewBox="0 0 24 24">
<path d="M18 18c0-1.657-0.673-3.158-1.757-4.243s-2.586-1.757-4.243-1.757-3.158 0.673-4.243 1.757-1.757 2.586-1.757 4.243c0 0.552 0.448 1 1 1s1-0.448 1-1c0-1.105 0.447-2.103 1.172-2.828s1.723-1.172 2.828-1.172 2.103 0.447 2.828 1.172 1.172 1.723 1.172 2.828c0 0.552 0.448 1 1 1s1-0.448 1-1zM3.513 10.927l1.42 1.42c0.391 0.391 1.024 0.391 1.414 0s0.391-1.024 0-1.414l-1.42-1.42c-0.391-0.391-1.024-0.391-1.414 0s-0.391 1.024 0 1.414zM1 19h2c0.552 0 1-0.448 1-1s-0.448-1-1-1h-2c-0.552 0-1 0.448-1 1s0.448 1 1 1zM21 19h2c0.552 0 1-0.448 1-1s-0.448-1-1-1h-2c-0.552 0-1 0.448-1 1s0.448 1 1 1zM19.067 12.347l1.42-1.42c0.391-0.391 0.391-1.024 0-1.414s-1.024-0.391-1.414 0l-1.42 1.42c-0.391 0.391-0.391 1.024 0 1.414s1.024 0.391 1.414 0zM23 21h-22c-0.552 0-1 0.448-1 1s0.448 1 1 1h22c0.552 0 1-0.448 1-1s-0.448-1-1-1zM15.293 4.293l-2.293 2.293v-4.586c0-0.552-0.448-1-1-1s-1 0.448-1 1v4.586l-2.293-2.293c-0.391-0.391-1.024-0.391-1.414 0s-0.391 1.024 0 1.414l4 4c0.096 0.096 0.206 0.168 0.324 0.217s0.247 0.076 0.383 0.076 0.265-0.027 0.383-0.076c0.118-0.049 0.228-0.121 0.324-0.217l4-4c0.391-0.391 0.391-1.024 0-1.414s-1.024-0.391-1.414 0z"></path>
</symbol>

<symbol id="sunrise" viewBox="0 0 24 24">
<path d="M18 18c0-1.657-0.673-3.158-1.757-4.243s-2.586-1.757-4.243-1.757-3.158 0.673-4.243 1.757-1.757 2.586-1.757 4.243c0 0.552 0.448 1 1 1s1-0.448 1-1c0-1.105 0.447-2.103 1.172-2.828s1.723-1.172 2.828-1.172 2.103 0.447 2.828 1.172 1.172 1.723 1.172 2.828c0 0.552 0.448 1 1 1s1-0.448 1-1zM3.513 10.927l1.42 1.42c0.391 0.391 1.024 0.391 1.414 0s0.391-1.024 0-1.414l-1.42-1.42c-0.391-0.391-1.024-0.391-1.414 0s-0.391 1.024 0 1.414zM1 19h2c0.552 0 1-0.448 1-1s-0.448-1-1-1h-2c-0.552 0-1 0.448-1 1s0.448 1 1 1zM21 19h2c0.552 0 1-0.448 1-1s-0.448-1-1-1h-2c-0.552 0-1 0.448-1 1s0.448 1 1 1zM19.067 12.347l1.42-1.42c0.391-0.391 0.391-1.024 0-1.414s-1.024-0.391-1.414 0l-1.42 1.42c-0.391 0.391-0.391 1.024 0 1.414s1.024 0.391 1.414 0zM23 21h-22c-0.552 0-1 0.448-1 1s0.448 1 1 1h22c0.552 0 1-0.448 1-1s-0.448-1-1-1zM8.707 6.707l2.293-2.293v4.586c0 0.552 0.448 1 1 1s1-0.448 1-1v-4.586l2.293 2.293c0.391 0.391 1.024 0.391 1.414 0s0.391-1.024 0-1.414l-4-4c-0.092-0.092-0.202-0.166-0.324-0.217-0.245-0.101-0.521-0.101-0.766 0-0.118 0.049-0.228 0.121-0.324 0.217l-4 4c-0.391 0.391-0.391 1.024 0 1.414s1.024 0.391 1.414 0z"></path>
</symbol>

<symbol id="uv-index" viewBox="25 25 450 450"><defs><clipPath id="gn"><path fill="none" d="M64 64h384v192H328a72 72 0 00-72 72v120H64V64Z"/></clipPath><symbol id="a" viewBox="0 0 375 375"><g><circle cx="187.5" cy="187.5" r="84" fill="none" stroke-miterlimit="10" stroke-width="15"/><path fill="none" stroke-linecap="round" stroke-miterlimit="10" stroke-width="15" d="M187.5 57.2V7.5m0 360v-49.7m92.2-222.5 35-35M60.3 314.7l35.1-35.1m0-184.4-35-35m254.5 254.5-35.1-35.1M57.2 187.5H7.5m360 0h-49.7"/></g></symbol><style>.ie,.if,.ig{fill:none;}.if{stroke-linecap:round;}.if,.ig{stroke-miterlimit:10;stroke-width:15px;}.ih{clip-path:url(#gn);}</style></defs><g id="gm"><g clip-path="url(#gn)"><use xlink:href="#a" width="375" height="375" transform="translate(68.5 68.5)"/><path fill="none" stroke-miterlimit="10" stroke-width="15" d="M254 338v-10a74 74 0 0174-74h10"/></g><g><path d="M337.7 388c-9.6 0-17-2.3-22.1-6.8-5.2-4.5-7.8-11-7.8-19.4V316h18.3v46c0 7.3 4 11 11.7 11s11.6-3.7 11.6-11v-46h18.3v45.8c0 8.5-2.6 15-7.7 19.5-5.2 4.5-12.6 6.7-22.3 6.7Zm75.7-43.5 8.2-28.5h18.6l-22.6 69.8h-19.4L375.7 316h18.8l8.3 28.4 5.3 22 5.3-21.9Z"/></g></g><defs><clipPath id="gn"><path fill="none" d="M64 64h384v192H328a72 72 0 00-72 72v120H64V64Z"/></clipPath><symbol id="a" viewBox="0 0 375 375"><g><circle cx="187.5" cy="187.5" r="84" fill="none" stroke-miterlimit="10" stroke-width="15"/><path fill="none" stroke-linecap="round" stroke-miterlimit="10" stroke-width="15" d="M187.5 57.2V7.5m0 360v-49.7m92.2-222.5 35-35M60.3 314.7l35.1-35.1m0-184.4-35-35m254.5 254.5-35.1-35.1M57.2 187.5H7.5m360 0h-49.7"/></g></symbol><style>.ie,.if,.ig{fill:none;}.if{stroke-linecap:round;}.if,.ig{stroke-miterlimit:10;stroke-width:15px;}.ih{clip-path:url(#gn);}</style></defs><g id="gm"><g clip-path="url(#gn)"><use xlink:href="#a" width="375" height="375" transform="translate(68.5 68.5)"/><path fill="none" stroke-miterlimit="10" stroke-width="15" d="M254 338v-10a74 74 0 0174-74h10"/></g><g><path d="M337.7 388c-9.6 0-17-2.3-22.1-6.8-5.2-4.5-7.8-11-7.8-19.4V316h18.3v46c0 7.3 4 11 11.7 11s11.6-3.7 11.6-11v-46h18.3v45.8c0 8.5-2.6 15-7.7 19.5-5.2 4.5-12.6 6.7-22.3 6.7Zm75.7-43.5 8.2-28.5h18.6l-22.6 69.8h-19.4L375.7 316h18.8l8.3 28.4 5.3 22 5.3-21.9Z"/></g></g>
</symbol>

<symbol id="wind" viewBox="0 0 32 32">
<path d="M26.801 16.587h-26.144c-0.363 0-0.657-0.294-0.657-0.657s0.294-0.657 0.657-0.657h26.017c0.041-0.008 0.084-0.012 0.127-0.012 2.143 0 3.886-1.743 3.886-3.886s-1.743-3.886-3.886-3.886-3.886 1.743-3.886 3.886c0 0.363-0.294 0.657-0.657 0.657s-0.657-0.294-0.657-0.657c0-2.867 2.332-5.199 5.199-5.199s5.199 2.332 5.199 5.199c0 2.822-2.259 5.126-5.064 5.198-0.044 0.009-0.089 0.014-0.136 0.014z"></path>
<path d="M13.335 12.038h-12.678c-0.363 0-0.657-0.294-0.657-0.657s0.294-0.657 0.657-0.657h12.551c0.041-0.008 0.084-0.012 0.127-0.012 2.143 0 3.886-1.743 3.886-3.886s-1.743-3.886-3.886-3.886c-2.143 0-3.886 1.743-3.886 3.886 0 0.363-0.294 0.657-0.657 0.657s-0.657-0.294-0.657-0.657c0-2.867 2.333-5.199 5.199-5.199s5.199 2.332 5.199 5.199c0 2.822-2.259 5.126-5.064 5.198-0.044 0.009-0.089 0.014-0.136 0.014z"></path>
<path d="M21.382 30.373c-2.867 0-5.199-2.332-5.199-5.199 0-0.363 0.294-0.657 0.657-0.657s0.657 0.294 0.657 0.657c0 2.143 1.743 3.886 3.886 3.886s3.886-1.743 3.886-3.886-1.743-3.886-3.886-3.886h-20.725c-0.363 0-0.657-0.294-0.657-0.657s0.294-0.657 0.657-0.657h20.725c2.867 0 5.199 2.332 5.199 5.199s-2.332 5.199-5.199 5.199z"></path>
</symbol>

<symbol id="location" viewBox="0 0 24 24">
<path d="M17.657 5.304c-3.124-3.073-8.189-3.073-11.313 0-3.124 3.074-3.124 8.057 0 11.13l5.656 5.565 5.657-5.565c3.124-3.073 3.124-8.056 0-11.13zm-5.657 8.195c-.668 0-1.295-.26-1.768-.732-.975-.975-.975-2.561 0-3.536.472-.472 1.1-.732 1.768-.732s1.296.26 1.768.732c.975.975.975 2.562 0 3.536-.472.472-1.1.732-1.768.732z"/>
</symbol>

<symbol id="arrow-left" viewBox="0 0 18 18">
<path d="M17 9H5.414l3.293-3.293a.999.999 0 10-1.414-1.414l-5 5a.999.999 0 000 1.414l5 5a.997.997 0 001.414 0 .999.999 0 000-1.414L5.414 11H17a1 1 0 100-2z"/>
</symbol>

<symbol id="arrow-right" viewBox="0 0 18 18">
<path d="M17.707 9.293l-5-5a.999.999 0 10-1.414 1.414L14.586 9H3a1 1 0 100 2h11.586l-3.293 3.293a.999.999 0 101.414 1.414l5-5a.999.999 0 000-1.414z"/>
</symbol>

<symbol id="search" viewBox="0 0 24 24">
<path d="M21.71,20.29,18,16.61A9,9,0,1,0,16.61,18l3.68,3.68a1,1,0,0,0,1.42,0A1,1,0,0,0,21.71,20.29ZM11,18a7,7,0,1,1,7-7A7,7,0,0,1,11,18Z"/>
</symbol>

<symbol id="direction" viewBox="0 0 24 24">
<path fill-rule="evenodd" d="M3.1428179,22.8839028 L12,1.37360338 L20.8571821,22.8839028 L12,19.0879676 L3.1428179,22.8839028 Z M12,16.9120324 L17.1428179,19.1160972 L12,6.62639662 L6.8571821,19.1160972 L12,16.9120324 Z"/>
</symbol>

<symbol id="feelslike" viewBox="0 0 32 32">
  <path d="M26,30H22a2.0059,2.0059,0,0,1-2-2V21a2.0059,2.0059,0,0,1-2-2V13a2.9465,2.9465,0,0,1,3-3h6a2.9465,2.9465,0,0,1,3,3v6a2.0059,2.0059,0,0,1-2,2v7A2.0059,2.0059,0,0,1,26,30ZM21,12a.9448.9448,0,0,0-1,1v6h2v9h4V19h2V13a.9448.9448,0,0,0-1-1Z"/>
  <path d="M24,9a4,4,0,1,1,4-4h0A4.0118,4.0118,0,0,1,24,9Zm0-6a2,2,0,1,0,2,2h0a2.0059,2.0059,0,0,0-2-2Z"/>
  <path d="M10,20.1839V12H8v8.1839a3,3,0,1,0,2,0Z"/>
  <path d="M9,30A6.9931,6.9931,0,0,1,4,18.1108V7A5,5,0,0,1,14,7V18.1108A6.9931,6.9931,0,0,1,9,30ZM9,4A3.0033,3.0033,0,0,0,6,7V18.9834l-.332.2983a5,5,0,1,0,6.664,0L12,18.9834V7A3.0033,3.0033,0,0,0,9,4Z"/>
</symbol>

<symbol id="location-error" viewBox="0 0 56 56" xmlns="http://www.w3.org/2000/svg">
	<path d="M 41.7460 29.5117 L 51.0509 9.4258 C 51.9884 7.4570 51.8712 6.0039 50.9333 5.0664 C 49.9724 4.1055 48.5194 4.0352 46.5507 4.9258 L 26.4179 14.2774 Z M 47.7696 44.6523 C 48.4724 45.3555 49.6210 45.3555 50.3242 44.6523 C 51.0274 43.9492 51.0274 42.8008 50.3242 42.0977 L 14.2304 6.0039 C 13.5273 5.3008 12.3789 5.3008 11.6523 6.0039 C 10.9726 6.6836 10.9726 7.8789 11.6523 8.5586 Z M 27.7538 50.8399 C 28.9023 51.9648 30.4491 51.7774 31.5741 50.6523 C 32.2070 50.0195 32.6991 49.0352 33.1210 48.0977 L 37.5741 38.4414 L 17.5585 18.3789 L 7.8789 22.8555 C 6.9648 23.2774 5.9569 23.7930 5.3241 24.4023 C 4.1757 25.5274 4.0116 27.0977 5.1367 28.2226 C 5.9804 29.0430 6.7773 29.3008 8.3945 29.3008 L 26.0898 29.4180 C 26.2538 29.4180 26.3710 29.4414 26.4648 29.5117 C 26.5351 29.6055 26.5820 29.7461 26.5820 29.9101 L 26.6757 47.5820 C 26.6757 49.1992 26.9335 50.0430 27.7538 50.8399 Z"/>
</symbol>

</svg>