<svg xmlns="http://www.w3.org/2000/svg" xmlns:xlink="http://www.w3.org/1999/xlink" display="none" preserveAspectRatio="none">
<symbol id="moon-first-quarter" viewBox="0 0 500 500">
<defs>
<linearGradient id="first" x1="193.7" x2="325.5" y1="147.7" y2="376" gradientUnits="userSpaceOnUse"><stop offset="0" stop-color="#86c3db"/><stop offset=".5" stop-color="#86c3db"/><stop offset="1" stop-color="#5eafcf"/></linearGradient>
</defs>
    <path fill="none" stroke="#e5e7eb" stroke-dasharray="16.9 56.2" stroke-linecap="round" stroke-linejoin="round" stroke-width="17.4" d="M384 256a128 128 0 00-128-128c-169.8 6.7-169.7 249.3 0 256a128 128 0 00128-128Z"/><path fill="url(#first)" stroke="#72b9d5" stroke-linecap="round" stroke-linejoin="round" stroke-width="6" d="M310 126.1a140.4 140.4 0 00-57-12.6 140 140 0 0126 152.1A140 140 0 01148.7 348c14 17.3 25.6 24.1 47.5 33.9 72 32 156 .8 187.4-69.8s-1.5-153.9-73.6-186Z"/>
    </symbol>
    
    <symbol id="moon-full" viewBox="0 0 500 500">
    <defs><linearGradient id="second" x1="186" x2="326" y1="134.7" y2="377.3" gradientUnits="userSpaceOnUse"><stop offset="0" stop-color="#86c3db"/><stop offset=".5" stop-color="#86c3db"/><stop offset="1" stop-color="#5eafcf"/></linearGradient></defs><circle cx="256" cy="256" r="140" fill="url(#second)" stroke="#72b9d5" stroke-linecap="round" stroke-linejoin="round" stroke-width="6"/>
    </symbol>
</svg>