<svg aria-hidden="true" style="position: absolute; width: 0; height: 0; overflow: hidden;" version="1.1" xmlns="http://www.w3.org/2000/svg" xmlns:xlink="http://www.w3.org/1999/xlink">
<defs>
<symbol id="icon-sunset" viewBox="0 0 500 500">
<path d="M18 18c0-1.657-0.673-3.158-1.757-4.243s-2.586-1.757-4.243-1.757-3.158 0.673-4.243 1.757-1.757 2.586-1.757 4.243c0 0.552 0.448 1 1 1s1-0.448 1-1c0-1.105 0.447-2.103 1.172-2.828s1.723-1.172 2.828-1.172 2.103 0.447 2.828 1.172 1.172 1.723 1.172 2.828c0 0.552 0.448 1 1 1s1-0.448 1-1zM3.513 10.927l1.42 1.42c0.391 0.391 1.024 0.391 1.414 0s0.391-1.024 0-1.414l-1.42-1.42c-0.391-0.391-1.024-0.391-1.414 0s-0.391 1.024 0 1.414zM1 19h2c0.552 0 1-0.448 1-1s-0.448-1-1-1h-2c-0.552 0-1 0.448-1 1s0.448 1 1 1zM21 19h2c0.552 0 1-0.448 1-1s-0.448-1-1-1h-2c-0.552 0-1 0.448-1 1s0.448 1 1 1zM19.067 12.347l1.42-1.42c0.391-0.391 0.391-1.024 0-1.414s-1.024-0.391-1.414 0l-1.42 1.42c-0.391 0.391-0.391 1.024 0 1.414s1.024 0.391 1.414 0zM23 21h-22c-0.552 0-1 0.448-1 1s0.448 1 1 1h22c0.552 0 1-0.448 1-1s-0.448-1-1-1zM15.293 4.293l-2.293 2.293v-4.586c0-0.552-0.448-1-1-1s-1 0.448-1 1v4.586l-2.293-2.293c-0.391-0.391-1.024-0.391-1.414 0s-0.391 1.024 0 1.414l4 4c0.096 0.096 0.206 0.168 0.324 0.217s0.247 0.076 0.383 0.076 0.265-0.027 0.383-0.076c0.118-0.049 0.228-0.121 0.324-0.217l4-4c0.391-0.391 0.391-1.024 0-1.414s-1.024-0.391-1.414 0z"></path>
</symbol>
<symbol id="icon-sunrise" viewBox="0 0 500 500">
<path d="M18 18c0-1.657-0.673-3.158-1.757-4.243s-2.586-1.757-4.243-1.757-3.158 0.673-4.243 1.757-1.757 2.586-1.757 4.243c0 0.552 0.448 1 1 1s1-0.448 1-1c0-1.105 0.447-2.103 1.172-2.828s1.723-1.172 2.828-1.172 2.103 0.447 2.828 1.172 1.172 1.723 1.172 2.828c0 0.552 0.448 1 1 1s1-0.448 1-1zM3.513 10.927l1.42 1.42c0.391 0.391 1.024 0.391 1.414 0s0.391-1.024 0-1.414l-1.42-1.42c-0.391-0.391-1.024-0.391-1.414 0s-0.391 1.024 0 1.414zM1 19h2c0.552 0 1-0.448 1-1s-0.448-1-1-1h-2c-0.552 0-1 0.448-1 1s0.448 1 1 1zM21 19h2c0.552 0 1-0.448 1-1s-0.448-1-1-1h-2c-0.552 0-1 0.448-1 1s0.448 1 1 1zM19.067 12.347l1.42-1.42c0.391-0.391 0.391-1.024 0-1.414s-1.024-0.391-1.414 0l-1.42 1.42c-0.391 0.391-0.391 1.024 0 1.414s1.024 0.391 1.414 0zM23 21h-22c-0.552 0-1 0.448-1 1s0.448 1 1 1h22c0.552 0 1-0.448 1-1s-0.448-1-1-1zM8.707 6.707l2.293-2.293v4.586c0 0.552 0.448 1 1 1s1-0.448 1-1v-4.586l2.293 2.293c0.391 0.391 1.024 0.391 1.414 0s0.391-1.024 0-1.414l-4-4c-0.092-0.092-0.202-0.166-0.324-0.217-0.245-0.101-0.521-0.101-0.766 0-0.118 0.049-0.228 0.121-0.324 0.217l-4 4c-0.391 0.391-0.391 1.024 0 1.414s1.024 0.391 1.414 0z"></path>
</symbol>
<symbol id="icon-pressure" viewBox="0 0 32 32">
<path d="M16 2c8.837 0 16 7.163 16 16 0 6.025-3.331 11.271-8.25 14h-15.499c-4.92-2.729-8.25-7.975-8.25-14 0-8.837 7.163-16 16-16zM25.060 27.060c2.42-2.42 3.753-5.637 3.753-9.060h-2.813v-2h2.657c-0.219-1.406-0.668-2.755-1.33-4h-3.327v-2h2.009c-0.295-0.368-0.611-0.722-0.949-1.060-1.444-1.444-3.173-2.501-5.060-3.119v2.178h-2v-2.658c-0.656-0.102-1.324-0.155-2-0.155s-1.344 0.053-2 0.155v2.658h-2v-2.178c-1.887 0.617-3.615 1.674-5.060 3.119-0.338 0.338-0.654 0.692-0.949 1.060h2.009v2h-3.327c-0.662 1.245-1.111 2.594-1.33 4h2.657v2h-2.813c0 3.422 1.333 6.64 3.753 9.060 0.335 0.335 0.685 0.648 1.049 0.94h6.011l1.143-16h1.714l1.143 16h6.011c0.364-0.292 0.714-0.606 1.049-0.94z"></path>
</symbol>
<symbol id="icon-humidity" viewBox="0 0 32 32">
<path d="M20.382 4.947c-0.239-0.325-0.696-0.395-1.021-0.156s-0.395 0.696-0.156 1.021c5.315 7.232 6.43 12.030 6.43 14.782 0 2.697-0.806 5.141-2.268 6.883-1.706 2.032-4.185 3.062-7.367 3.062-7.112 0-9.635-5.358-9.635-9.945 0-5.086 2.737-10.053 5.032-13.324 2.518-3.588 5.074-5.981 5.1-6.004 0.296-0.274 0.313-0.737 0.038-1.032s-0.737-0.313-1.032-0.038c-0.108 0.1-2.678 2.502-5.283 6.209-2.425 3.45-5.316 8.712-5.316 14.189 0 3.025 0.942 5.804 2.652 7.825 1.983 2.343 4.903 3.582 8.444 3.582 3.583 0 6.517-1.239 8.486-3.584 1.683-2.005 2.61-4.783 2.61-7.823-0-5.382-3.651-11.479-6.714-15.647z"></path>
<path d="M19.323 14.426l-9.267 9.267c-0.285 0.285-0.285 0.748 0 1.033 0.143 0.143 0.33 0.214 0.517 0.214s0.374-0.071 0.517-0.214l9.267-9.267c0.285-0.285 0.285-0.748 0-1.033s-0.748-0.285-1.033 0z"></path>
<path d="M18.693 20.245c-1.294 0-2.347 1.053-2.347 2.347s1.053 2.347 2.347 2.347 2.347-1.053 2.347-2.347-1.053-2.347-2.347-2.347zM18.693 23.479c-0.489 0-0.887-0.398-0.887-0.887s0.398-0.887 0.887-0.887 0.887 0.398 0.887 0.887-0.398 0.887-0.887 0.887z"></path>
<path d="M12.19 18.907c1.294 0 2.347-1.053 2.347-2.347s-1.053-2.347-2.347-2.347-2.347 1.053-2.347 2.347 1.053 2.347 2.347 2.347zM12.19 15.673c0.489 0 0.887 0.398 0.887 0.887s-0.398 0.887-0.887 0.887c-0.489 0-0.887-0.398-0.887-0.887s0.398-0.887 0.887-0.887z"></path>
</symbol>
<symbol id="icon-sun" viewBox="0 0 32 32">
<path d="M0 14.994h4.31v2.012h-4.31v-2.012z"></path>
<path d="M27.691 14.994h4.309v2.012h-4.309v-2.012z"></path>
<path d="M1.641 23.129l1.006 1.743 3.732-2.155-1.006-1.742z"></path>
<path d="M30.36 8.871l-1.006-1.742-3.732 2.155 1.006 1.742z"></path>
<path d="M7.129 29.354l1.742 1.006 2.155-3.732-1.742-1.006z"></path>
<path d="M24.872 2.646l-1.743-1.006-2.154 3.732 1.742 1.006z"></path>
<path d="M14.995 27.691h2.012v4.309h-2.012v-4.309z"></path>
<path d="M14.995 0h2.012v4.309h-2.012v-4.309z"></path>
<path d="M20.975 26.627l2.154 3.732 1.743-1.006-2.155-3.732z"></path>
<path d="M11.026 5.373l-2.155-3.732-1.742 1.006 2.155 3.732z"></path>
<path d="M25.622 22.716l3.732 2.155 1.006-1.743-3.732-2.154z"></path>
<path d="M6.378 9.284l-3.732-2.155-1.006 1.742 3.732 2.155z"></path>
<path d="M16.001 6.245c-5.388 0-9.755 4.367-9.755 9.755s4.367 9.755 9.755 9.755c5.387 0 9.755-4.367 9.755-9.755s-4.368-9.755-9.755-9.755z"></path>
</symbol>
<symbol id="icon-temperature" viewBox="0 0 32 32">
<path d="M20.75 6.008c0-6.246-9.501-6.248-9.5 0v13.238c-1.235 1.224-2 2.921-2 4.796 0 3.728 3.022 6.75 6.75 6.75s6.75-3.022 6.75-6.75c0-1.875-0.765-3.572-2-4.796h-0.001zM16 29.25c-2.9 0-5.25-2.351-5.25-5.251 0-1.553 0.674-2.948 1.745-3.909l0.005-0.004 0.006-0.012c0.13-0.122 0.215-0.29 0.231-0.477v-0.003c0.001-0.014 0.007-0.024 0.008-0.038l0.006-0.029v-13.52c-0.003-0.053-0.005-0.115-0.005-0.178 0-1.704 1.381-3.085 3.085-3.085 0.060 0 0.12 0.002 0.179 0.005h-0.008c0.051-0.003 0.11-0.005 0.17-0.005 1.704 0 3.085 1.381 3.085 3.085 0 0.063-0.002 0.125-0.006 0.186v-0.008 13.52l0.006 0.029 0.007 0.036c0.015 0.191 0.101 0.36 0.231 0.482v0l0.006 0.012c1.076 0.966 1.75 2.361 1.75 3.913 0 2.9-2.35 5.25-5.25 5.251v0zM16.75 21.367v-15.367c0-0.414-0.336-0.75-0.75-0.75s-0.75 0.336-0.75 0.75v0 15.367c-1.164 0.338-2 1.394-2 2.646 0 1.519 1.231 2.75 2.75 2.75s2.75-1.231 2.75-2.75c0-1.252-0.836-2.308-1.981-2.641l-0.019-0.005zM26.5 2.25c-1.795 0-3.25 1.455-3.25 3.25s1.455 3.25 3.25 3.25c1.795 0 3.25-1.455 3.25-3.25v0c-0.002-1.794-1.456-3.248-3.25-3.25v0zM26.5 7.25c-0.966 0-1.75-0.784-1.75-1.75s0.784-1.75 1.75-1.75c0.966 0 1.75 0.784 1.75 1.75v0c-0.001 0.966-0.784 1.749-1.75 1.75v0z"></path>
</symbol>
<symbol id="icon-uv_index-1" viewBox="0 0 32 32">
<path d="M21.581 20.189h-1.783c-0.084 0-0.14 0.056-0.14 0.14v5.951c0 1.137-0.632 1.783-1.586 1.783-0.969 0-1.6-0.645-1.6-1.783v-5.951c0-0.084-0.057-0.14-0.14-0.14h-1.783c-0.084 0-0.14 0.056-0.14 0.14v5.895c0 2.373 1.515 3.664 3.663 3.664 2.133 0 3.649-1.291 3.649-3.664v-5.895c0-0.084-0.056-0.14-0.14-0.14z"></path>
<path d="M31.516 20.189h-1.811c-0.098 0-0.154 0.042-0.182 0.14l-1.853 6.26h-0.042l-1.91-6.26c-0.027-0.098-0.084-0.14-0.182-0.14h-1.825c-0.098 0-0.153 0.056-0.126 0.154l3.032 9.249c0.029 0.084 0.084 0.14 0.183 0.14h1.628c0.084 0 0.14-0.056 0.168-0.14l3.032-9.249c0.029-0.099-0.027-0.154-0.112-0.154z"></path>
<path d="M8.557 0c0.907 1.122 1.451 2.55 1.451 4.105-0.001 3.611-2.927 6.537-6.538 6.537-1.275 0-2.465-0.367-3.471-0.998v22.356l32-32h-23.443zM2.651 17.075v-3.187h1.64l0.001 3.187h-1.641zM12.061 13.857l-2.253-2.254 1.161-1.161 2.253 2.254-1.161 1.161zM13.254 4.927v-1.642l3.187-0.001v1.641l-3.187 0.001z"></path>
</symbol>
<symbol id="icon-uv_index-2" viewBox="0 0 32 32">
<path d="M13 30h-4c-1.104-0.002-1.998-0.896-2-2v-8h2v8h4v-8h2v8c-0.002 1.104-0.896 1.998-2 2h-0z"></path>
<path d="M25 20h-1.75l-2.25 9.031-2.208-9.031h-1.792l2.5 10h3l2.5-10z"></path>
<path d="M15 2h2v5h-2v-5z"></path>
<path d="M21.687 8.899l3.506-3.506 1.414 1.414-3.506 3.506-1.414-1.414z"></path>
<path d="M25 15h5v2h-5v-2z"></path>
<path d="M2 15h5v2h-5v-2z"></path>
<path d="M5.394 6.808l1.414-1.414 3.506 3.506-1.414 1.414-3.506-3.506z"></path>
<path d="M22 17h-2v-1c0-2.209-1.791-4-4-4s-4 1.791-4 4v0 1h-2v-1c0-3.314 2.686-6 6-6s6 2.686 6 6v0z"></path>
</symbol>
<symbol id="icon-wind" viewBox="0 0 32 32">
<path d="M26.801 16.587h-26.144c-0.363 0-0.657-0.294-0.657-0.657s0.294-0.657 0.657-0.657h26.017c0.041-0.008 0.084-0.012 0.127-0.012 2.143 0 3.886-1.743 3.886-3.886s-1.743-3.886-3.886-3.886-3.886 1.743-3.886 3.886c0 0.363-0.294 0.657-0.657 0.657s-0.657-0.294-0.657-0.657c0-2.867 2.332-5.199 5.199-5.199s5.199 2.332 5.199 5.199c0 2.822-2.259 5.126-5.064 5.198-0.044 0.009-0.089 0.014-0.136 0.014z"></path>
<path d="M13.335 12.038h-12.678c-0.363 0-0.657-0.294-0.657-0.657s0.294-0.657 0.657-0.657h12.551c0.041-0.008 0.084-0.012 0.127-0.012 2.143 0 3.886-1.743 3.886-3.886s-1.743-3.886-3.886-3.886c-2.143 0-3.886 1.743-3.886 3.886 0 0.363-0.294 0.657-0.657 0.657s-0.657-0.294-0.657-0.657c0-2.867 2.333-5.199 5.199-5.199s5.199 2.332 5.199 5.199c0 2.822-2.259 5.126-5.064 5.198-0.044 0.009-0.089 0.014-0.136 0.014z"></path>
<path d="M21.382 30.373c-2.867 0-5.199-2.332-5.199-5.199 0-0.363 0.294-0.657 0.657-0.657s0.657 0.294 0.657 0.657c0 2.143 1.743 3.886 3.886 3.886s3.886-1.743 3.886-3.886-1.743-3.886-3.886-3.886h-20.725c-0.363 0-0.657-0.294-0.657-0.657s0.294-0.657 0.657-0.657h20.725c2.867 0 5.199 2.332 5.199 5.199s-2.332 5.199-5.199 5.199z"></path>
</symbol>
<symbol id="icon-rain" viewBox="0 0 24 24">
<path d="m5.119 23.764c-.146-.146-.236-.347-.236-.569s.09-.424.236-.569l4.166-4.165c.147-.153.353-.248.581-.248.445 0 .805.36.805.805 0 .228-.095.435-.248.581l-4.165 4.166c-.146.146-.347.236-.569.236s-.424-.09-.569-.236zm8.475-3.94c-.146-.146-.236-.347-.236-.569s.09-.423.236-.569l3.059-3.056h-8.5l-4.198 4.195c-.146.146-.347.236-.569.236-.445 0-.805-.36-.805-.805 0-.222.09-.424.236-.569l3.06-3.06h-.071c-.019 0-.042 0-.064 0-3.206 0-5.806-2.599-5.806-5.806s2.599-5.806 5.806-5.806h.067-.003c.09 0 .18.007.269.011 1.364-2.42 3.917-4.027 6.846-4.027 4.325 0 7.832 3.506 7.832 7.831q0 .007 0 .015c1.74.437 3.008 1.987 3.008 3.833 0 2.18-1.767 3.946-3.946 3.946h-.884l-4.198 4.198c-.146.146-.347.236-.569.236s-.423-.09-.569-.236zm-11.985-10.004c.002 2.317 1.88 4.194 4.196 4.197h14.004c1.292 0 2.338-1.047 2.338-2.339s-1.047-2.339-2.339-2.339c-.577 0-1.104.209-1.512.554l.003-.003c-.14.119-.322.192-.522.192-.445 0-.806-.361-.806-.806 0-.246.11-.466.283-.613l.001-.001c.515-.437 1.152-.747 1.852-.871l.024-.004c-.029-3.412-2.802-6.168-6.218-6.168-2.136 0-4.02 1.077-5.139 2.717l-.014.021c.639.231 1.192.545 1.68.937l-.011-.009c.188.149.307.377.307.633 0 .445-.36.805-.805.805-.193 0-.371-.068-.51-.182l.001.001c-.706-.573-1.616-.919-2.606-.919-.004 0-.008 0-.011 0h.001c-2.318.001-4.197 1.879-4.199 4.197z"></path>
</symbol>
</defs>
</svg>
