<svg aria-hidden="true" style="position: absolute; width: 0; height: 0; overflow: hidden;" version="1.1" xmlns="http://www.w3.org/2000/svg" xmlns:xlink="http://www.w3.org/1999/xlink">
<defs>
<symbol id="icon-last-quarter" viewBox="0 0 32 32">
<path d="M16 0c-8.822 0-16 7.178-16 16s7.178 16 16 16 16-7.177 16-16c0-8.822-7.178-16-16-16zM27.087 27.086c-2.976 3.064-6.54 4.595-10.692 4.595v-31.364c4.152 0 7.716 1.535 10.692 4.604 2.975 3.071 4.464 6.763 4.464 11.078 0 4.327-1.488 8.022-4.464 11.086z"></path>
</symbol>
<symbol id="icon-waning-crescent" viewBox="0 0 32 32">
<path d="M16 0c-8.822 0-16 7.178-16 16s7.178 16 16 16 16-7.177 16-16c0-8.822-7.178-16-16-16zM27.086 27.060c-3.075 3.063-6.771 4.596-11.086 4.596 1.704 0 3.175-1.532 4.414-4.596 1.238-3.064 1.858-6.76 1.858-11.086 0-4.315-0.62-8.007-1.858-11.078-1.239-3.070-2.71-4.605-4.414-4.605 4.315 0 8.010 1.535 11.086 4.604 3.076 3.071 4.614 6.763 4.614 11.078 0 4.327-1.538 8.022-4.614 11.086z"></path>
</symbol>
<symbol id="icon-full" viewBox="0 0 32 32">
<path d="M16 0c-8.822 0-16 7.178-16 16s7.178 16 16 16 16-7.177 16-16c0-8.822-7.178-16-16-16zM16 31.508c-8.551 0-15.508-6.956-15.508-15.508s6.957-15.508 15.508-15.508 15.508 6.957 15.508 15.508c0 8.551-6.957 15.508-15.508 15.508z"></path>
</symbol>
<symbol id="icon-first-quarter" viewBox="0 0 32 32">
<path d="M16 0c-8.822 0-16 7.178-16 16s7.178 16 16 16 16-7.177 16-16c0-8.822-7.178-16-16-16zM13.784 27.086c0.652 3.064 1.45 4.596 2.393 4.596-4.302 0-7.989-1.532-11.059-4.596s-4.605-6.76-4.605-11.086c0-4.315 1.534-8.007 4.604-11.077 3.070-3.069 6.757-4.605 11.059-4.605-0.943 0-1.741 1.536-2.393 4.605-0.653 3.070-0.979 6.762-0.979 11.077 0 4.327 0.326 8.022 0.979 11.086z"></path>
</symbol>
<symbol id="icon-waxing-gibbous" viewBox="0 0 32 32">
<path d="M16 0c-8.822 0-16 7.178-16 16s7.178 16 16 16 16-7.177 16-16c0-8.822-7.178-16-16-16zM22.42 27.086c-1.735 3.064-3.81 4.596-6.227 4.596-4.315 0-8.007-1.532-11.077-4.596s-4.605-6.76-4.605-11.086c0-4.315 1.535-8.007 4.605-11.077 3.070-3.069 6.762-4.605 11.077-4.605 2.417 0 4.493 1.536 6.228 4.605 1.734 3.070 2.602 6.762 2.602 11.077 0 4.327-0.868 8.022-2.602 11.086z"></path>
</symbol>
<symbol id="icon-waning-gibbous" viewBox="0 0 32 32">
<path d="M16 0c-8.822 0-16 7.178-16 16s7.178 16 16 16 16-7.177 16-16c0-8.822-7.178-16-16-16zM27.155 27.086c-3.076 3.064-6.753 4.596-11.032 4.596-1.716 0-3.194-1.532-4.433-4.596s-1.858-6.759-1.858-11.086c0-4.315 0.619-8.007 1.858-11.077s2.717-4.606 4.433-4.606c4.278 0 7.956 1.535 11.032 4.606s4.614 6.762 4.614 11.077c0 4.327-1.538 8.022-4.614 11.086z"></path>
</symbol>
<symbol id="icon-waxing-crescent" viewBox="0 0 32 32">
<path d="M16 0c-8.822 0-16 7.178-16 16s7.178 16 16 16 16-7.177 16-16c0-8.822-7.178-16-16-16zM9.808 27.087c1.728 3.064 3.807 4.595 6.236 4.595-4.314 0-8.007-1.532-11.077-4.595s-4.605-6.76-4.605-11.087c0-4.315 1.535-8.007 4.605-11.077s6.762-4.605 11.077-4.605c-2.429 0-4.508 1.535-6.236 4.605-1.729 3.070-2.593 6.763-2.593 11.077 0 4.327 0.864 8.023 2.593 11.087z"></path>
</symbol>
<symbol id="icon-new" viewBox="0 0 32 32">
<path d="M16 0c-8.822 0-16 7.178-16 16s7.178 16 16 16 16-7.177 16-16c0-8.822-7.178-16-16-16zM5.981 27.087c2.81 3.064 6.179 4.595 10.107 4.595-4.315 0-8.007-1.532-11.077-4.595s-4.605-6.76-4.605-11.087c0-4.315 1.535-8.007 4.605-11.077s6.762-4.605 11.077-4.605c-3.928 0-7.297 1.535-10.107 4.605-2.81 3.070-4.215 6.763-4.215 11.077 0 4.327 1.405 8.023 4.215 11.087z"></path>
</symbol>
<symbol id="icon-location" viewBox="0 0 32 32">
<path d="M16.013 32v-16.017h-16.013l32-15.983-15.987 32z"></path>
</symbol>
<symbol id="icon-compass" viewBox="0 0 32 32">
<path d="M17 32c-0.072 0-0.144-0.008-0.217-0.024-0.458-0.102-0.783-0.507-0.783-0.976v-15h-15c-0.469 0-0.875-0.326-0.976-0.783s0.129-0.925 0.553-1.123l30-14c0.381-0.178 0.833-0.098 1.13 0.199s0.377 0.749 0.199 1.13l-14 30c-0.167 0.358-0.524 0.577-0.906 0.577zM5.508 14h11.492c0.552 0 1 0.448 1 1v11.492l10.931-23.423-23.423 10.931z"></path>
</symbol>
<symbol id="icon-arrow-right" viewBox="0 0 32 32">
<path d="M19.414 27.414l10-10c0.781-0.781 0.781-2.047 0-2.828l-10-10c-0.781-0.781-2.047-0.781-2.828 0s-0.781 2.047 0 2.828l6.586 6.586h-19.172c-1.105 0-2 0.895-2 2s0.895 2 2 2h19.172l-6.586 6.586c-0.39 0.39-0.586 0.902-0.586 1.414s0.195 1.024 0.586 1.414c0.781 0.781 2.047 0.781 2.828 0z"></path>
</symbol>
<symbol id="icon-arrow-left" viewBox="0 0 32 32">
<path d="M12.586 27.414l-10-10c-0.781-0.781-0.781-2.047 0-2.828l10-10c0.781-0.781 2.047-0.781 2.828 0s0.781 2.047 0 2.828l-6.586 6.586h19.172c1.105 0 2 0.895 2 2s-0.895 2-2 2h-19.172l6.586 6.586c0.39 0.39 0.586 0.902 0.586 1.414s-0.195 1.024-0.586 1.414c-0.781 0.781-2.047 0.781-2.828 0z"></path>
</symbol>
</defs>
</svg>
