<svg width="0" height="0" class="hidden">

  <symbol xmlns="http://www.w3.org/2000/svg" viewBox="0 0 512 512" id="barometer">
    <defs>
      <linearGradient id="a1" x1="184" x2="328" y1="131.3" y2="380.7" gradientUnits="userSpaceOnUse">
        <stop offset="0" stop-color="#6b7280"></stop>
        <stop offset=".5" stop-color="#6b7280"></stop>
        <stop offset="1" stop-color="#374151"></stop>
      </linearGradient>
    </defs>
    <circle cx="256" cy="256" r="144" fill="url(#a1)" stroke="#e5e7eb" stroke-miterlimit="10" stroke-width="12"></circle>
    <path fill="none" stroke="#9ca3af" stroke-linecap="round" stroke-linejoin="round" stroke-width="6" d="M256 200v-48m108 104h-48m-116 0h-48m180-68-24 24m-104 0-24-24m128 112 24 24m-152 0 24-24"></path>
    <circle cx="256" cy="256" r="24" fill="#ef4444"></circle>
    <path fill="none" stroke="#ef4444" stroke-linecap="round" stroke-miterlimit="10" stroke-width="12" d="M256 284V164">
      <animateTransform attributeName="transform" calcMode="spline" dur="6s" keySplines=".42, 0, .58, 1; .42, 0, .58, 1; .42, 0, .58, 1; .42, 0, .58, 1; .42, 0, .58, 1; .42, 0, .58, 1" keyTimes="0; .17; .25; .42; .5; .67; 1" repeatCount="indefinite" type="rotate" values="-54 256 256; -15 256 256; -36 256 256; 36 256 256; 10 256 256; 115 256 256; -54 256 256">
      </animateTransform>
    </path>
  </symbol>

  <symbol xmlns="http://www.w3.org/2000/svg" xmlns:xlink="http://www.w3.org/1999/xlink" viewBox="0 0 512 512" id="humidity">
    <defs>
      <linearGradient id="a2" x1="14.8" x2="124.2" y1="42.3" y2="231.7" gradientUnits="userSpaceOnUse">
        <stop offset="0" stop-color="#3392d6"></stop>
        <stop offset=".5" stop-color="#3392d6"></stop>
        <stop offset="1" stop-color="#2477b2"></stop>
      </linearGradient>
      <symbol id="b1" viewBox="0 0 164 245.6">
        <path fill="url(#a2)" stroke="#2885c7" stroke-miterlimit="10" stroke-width="4" d="M82 3.6c-48.7 72-80 117-80 160.7s35.8 79.3 80 79.3 80-35.5 80-79.3S130.7 75.5 82 3.6Z">
          <animateTransform additive="sum" attributeName="transform" calcMode="spline" dur="6s" keySplines=".42, 0, .58, 1; .42, 0, .58, 1" repeatCount="indefinite" type="scale" values="1 1; 1 .9; 1 1"></animateTransform>
        </path>
      </symbol>
    </defs>
    <use xlink:href="#b1" width="164" height="245.6" transform="translate(173.9 133.01)"></use>
    <path fill="#fff" d="M218.8 250.5q4.8-4.5 13.7-4.5t13.6 4.5q4.8 4.4 4.8 12.4v8q0 7.8-4.8 12.2t-13.6 4.4q-9 0-13.7-4.4t-4.8-12.2v-8q0-8 4.8-12.4Zm71.2-1.6a2.8 2.8 0 01-.6 2.6l-53 73.3a9.4 9.4 0 01-2.8 2.8 12.3 12.3 0 01-4.6.6h-4.4c-1.3 0-2.1-.4-2.5-1.1a2.8 2.8 0 01.7-2.8l53-73.3a7 7 0 012.6-2.7 12.7 12.7 0 014.4-.5h4.9c1.2 0 2 .4 2.3 1.1Zm-57.5 7.6q-7.7 0-7.7 7v6.7q0 7 7.7 7t7.7-7v-6.8q0-6.9-7.7-6.9Zm33.4 36.4q4.7-4.5 13.7-4.5t13.6 4.5q4.8 4.5 4.8 12.4v8q0 7.8-4.8 12.2t-13.7 4.5q-8.9 0-13.6-4.4t-4.8-12.3v-8q0-8 4.8-12.4Zm13.6 6.1q-7.6 0-7.6 7v6.6q0 7 7.6 7t7.7-7v-6.7q0-6.9-7.7-6.9Z"></path>
  </symbol>

  <symbol xmlns="http://www.w3.org/2000/svg" xmlns:xlink="http://www.w3.org/1999/xlink" viewBox="0 0 250 512" id="sunrise">
    <defs>
      <linearGradient id="a3" x1="150" x2="234" y1="119.2" y2="264.8" gradientUnits="userSpaceOnUse">
        <stop offset="0" stop-color="#fbbf24"></stop>
        <stop offset=".5" stop-color="#fbbf24"></stop>
        <stop offset="1" stop-color="#f59e0b"></stop>
      </linearGradient>
      <clipPath id="b3">
        <path fill="none" d="M512 306H304l-35.9-31.4a18.4 18.4 0 00-24.2 0L208 306H0V0h512Z"></path>
      </clipPath>
      <symbol id="c3" viewBox="0 0 384 384">
        <circle cx="192" cy="192" r="84" fill="url(#a3)" stroke="#f8af18" stroke-miterlimit="10" stroke-width="6"></circle>
        <path fill="none" stroke="#fbbf24" stroke-linecap="round" stroke-miterlimit="10" stroke-width="24" d="M192 61.7V12m0 360v-49.7m92.2-222.5 35-35M64.8 319.2l35.1-35.1m0-184.4-35-35m254.5 254.5-35.1-35.1M61.7 192H12m360 0h-49.7">
          <animateTransform additive="sum" attributeName="transform" dur="6s" repeatCount="indefinite" type="rotate" values="0 192 192; 45 192 192"></animateTransform>
        </path>
      </symbol>
    </defs>
    <g clip-path="url(#b3)">
      <use xlink:href="#c3" width="384" height="384" transform="translate(64 100)"></use>
    </g>
    <path fill="none" stroke="#374151" stroke-linecap="round" stroke-linejoin="round" stroke-width="18" d="M128 332h88l40-36 40 36h88"></path>
  </symbol>

  <!-- <symbol xmlns="http://www.w3.org/2000/svg" xmlns:xlink="http://www.w3.org/1999/xlink" viewBox="0 0 512 512" id="sunset">
    <defs>
      <linearGradient id="a" x1="150" x2="234" y1="119.2" y2="264.8" gradientUnits="userSpaceOnUse">
        <stop offset="0" stop-color="#fbbf24"></stop>
        <stop offset=".5" stop-color="#fbbf24"></stop>
        <stop offset="1" stop-color="#f59e0b"></stop>
      </linearGradient>
      <clipPath id="b">
        <path fill="none" d="M512 306H296a21.5 21.5 0 00-14 5.3L256 334l-26-22.7a21.5 21.5 0 00-14-5.3H0V0h512Z"></path>
      </clipPath>
      <symbol id="c" viewBox="0 0 384 384">
        <circle cx="192" cy="192" r="84" fill="url(#a)" stroke="#f8af18" stroke-miterlimit="10" stroke-width="6"></circle>
        <path fill="none" stroke="#fbbf24" stroke-linecap="round" stroke-miterlimit="10" stroke-width="24" d="M192 61.7V12m0 360v-49.7m92.2-222.5 35-35M64.8 319.2l35.1-35.1m0-184.4-35-35m254.5 254.5-35.1-35.1M61.7 192H12m360 0h-49.7">
          <animateTransform additive="sum" attributeName="transform" dur="6s" repeatCount="indefinite" type="rotate" values="0 192 192; 45 192 192"></animateTransform>
        </path>
      </symbol>
    </defs>
    <g clip-path="url(#b)">
      <use xlink:href="#c" width="384" height="384" transform="translate(64 100)"></use>
    </g>
    <path fill="none" stroke="#374151" stroke-linecap="round" stroke-linejoin="round" stroke-width="18" d="M128 332h88l40 36 40-36h88"></path>
  </symbol>
  <symbol xmlns="http://www.w3.org/2000/svg" xmlns:xlink="http://www.w3.org/1999/xlink" viewBox="0 0 512 512" id="windsock">
    <defs>
      <linearGradient id="a" x1="90" x2="206" y1="155.6" y2="356.4" gradientUnits="userSpaceOnUse">
        <stop offset="0" stop-color="#d4d7dd"></stop>
        <stop offset=".5" stop-color="#d4d7dd"></stop>
        <stop offset="1" stop-color="#bec1c6"></stop>
      </linearGradient>
      <linearGradient id="b" x1="179.4" x2="226.7" y1="142.4" y2="224.3" gradientUnits="userSpaceOnUse">
        <stop offset="0" stop-color="#f87171"></stop>
        <stop offset=".5" stop-color="#f87171"></stop>
        <stop offset="1" stop-color="#dc2626"></stop>
      </linearGradient>
      <linearGradient xlink:href="#b" id="c" x1="252.5" x2="291.9" y1="149.2" y2="217.5"></linearGradient>
      <linearGradient xlink:href="#b" id="d" x1="325.6" x2="357.2" y1="156" y2="210.7"></linearGradient>
    </defs>
    <path fill="none" stroke="url(#a)" stroke-linecap="round" stroke-linejoin="round" stroke-width="24" d="M148 376V136"></path>
    <path fill="url(#b)" stroke="#ef4444" stroke-miterlimit="10" stroke-width="2" d="m191.4 137 28.8 4.3a6.4 6.4 0 015.4 6.3v73.7a6.4 6.4 0 01-5.4 6.3l-28.8 4.2a6.4 6.4 0 01-7.3-6.4v-82a6.4 6.4 0 017.3-6.3Z">
      <animateTransform additive="sum" attributeName="transform" calcMode="spline" dur="3s" keySplines=".42, 0, .58, 1; .42, 0, .58, 1" repeatCount="indefinite" type="rotate" values="-6 99 184; 6 99 184; -6 99 184"></animateTransform>
    </path>
    <path fill="url(#c)" stroke="#ef4444" stroke-miterlimit="10" stroke-width="2" d="m260.6 146.1 28.8 4.2a6.4 6.4 0 015.4 6.3v55.6a6.4 6.4 0 01-5.5 6.3l-28.7 4.2a6.4 6.4 0 01-7.3-6.3v-64a6.4 6.4 0 017.3-6.3Z">
      <animateTransform additive="sum" attributeName="transform" calcMode="spline" dur="3s" keySplines=".42, 0, .58, 1; .42, 0, .58, 1" repeatCount="indefinite" type="rotate" values="-6 99 184; 6 99 184; -6 99 184"></animateTransform>
      <animateTransform additive="sum" attributeName="transform" calcMode="spline" dur="1.5s" keySplines=".42, 0, .58, 1; .42, 0, .58, 1" repeatCount="indefinite" type="translate" values="0 0; 5 0; 0 0"></animateTransform>
    </path>
    <path fill="url(#d)" stroke="#ef4444" stroke-miterlimit="10" stroke-width="2" d="m329.8 155.2 28.7 4.2a6.4 6.4 0 015.5 6.3v37.4a6.4 6.4 0 01-5.5 6.3l-28.7 4.2a6.4 6.4 0 01-7.3-6.3v-45.8a6.4 6.4 0 017.3-6.3Z">
      <animateTransform additive="sum" attributeName="transform" calcMode="spline" dur="3s" keySplines=".42, 0, .58, 1; .42, 0, .58, 1" repeatCount="indefinite" type="rotate" values="-6 99 184; 6 99 184; -6 99 184"></animateTransform>
      <animateTransform additive="sum" attributeName="transform" calcMode="spline" dur="1.5s" keySplines=".42, 0, .58, 1; .42, 0, .58, 1" repeatCount="indefinite" type="translate" values="0 0; 10 0; 0 0"></animateTransform>
    </path>
  </symbol> -->
</svg>